# xmcd
#
# Track frame offsets:
#	150
#	32989
#	62656
#	74407
#	94141
#	108501
#	142467
#	171219
#	207505
#	253108
#	281833
#	312411
#	321182
#
# Disc length: 4710 seconds
#
# Revision: 1
# Processed by: cddbd v1.5.2PL0 Copyright (c) Steve Scherf et al.
# Submitted via: audiograbber 1.83.01
#
DISCID=d712640d
DTITLE=Grateful Dead - 78-06-04 Campus Stadium, U.C.S.B., Santa Barbara CA
DYEAR=1900
DGENRE=
TTITLE0=Bertha
TTITLE1=Good Lovin'
TTITLE2=Stage Banter
TTITLE3=Dire Wolf
TTITLE4=Me and My Uncle
TTITLE5=Big River
TTITLE6=Brown Eyed Women
TTITLE7=Looks Like Rain
TTITLE8=Tennessee Jed
TTITLE9=Jack Straw
TTITLE10=Samson and Delilah
TTITLE11=Tuning
TTITLE12=Ship Of Fools
EXTD=
EXTT0=
EXTT1=
EXTT2=
EXTT3=
EXTT4=
EXTT5=
EXTT6=
EXTT7=
EXTT8=
EXTT9=
EXTT10=
EXTT11=
EXTT12=
PLAYORDER=
